<svg id="Group_2" data-name="Group 2" xmlns="http://www.w3.org/2000/svg" width="199.411" height="215.274" viewBox="0 0 199.411 215.274">
  <path id="Path_13" data-name="Path 13" d="M299.06,234.233l-.038-81.835-20.7-15.262.964,117.307C279.9,253.4,299.06,234.233,299.06,234.233Z" transform="translate(-222.045 -137.135)" fill="#343637"/>
  <path id="Path_14" data-name="Path 14" d="M278.586,160.83v18.764c27.431-.065,92.061-.256,92.061-.256V341.975s-36.105.224-51.023.229c-33.527.009-111.746,1.313-111.746,1.313l1.762-161.756h24.415V160.587h-43.6V360.841H389.863V160.83Z" transform="translate(-190.452 -145.568)" fill="#343637"/>
  <path id="Path_15" data-name="Path 15" d="M278.683,308.036s-.127,35.477.059,35.71h20.19V314.805c2.933-2.791,64.974-66.7,64.974-66.7-9.219.017-26.032.12-26.032.12Z" transform="translate(-222.161 -177.035)" fill="#343637"/>
  <path id="Path_16" data-name="Path 16" d="M370.036,361.7c1.379,1.832,3.218,4.513,5,4.639,7.39.525,14.838.221,23.416.221L358.516,311.3l-14.53,15.467C352.881,338.737,361.418,350.252,370.036,361.7Z" transform="translate(-245.657 -199.757)" fill="#343637"/>
</svg>